<svg width="13" height="12" viewBox="0 0 13 12" fill="none" xmlns="http://www.w3.org/2000/svg">
<g clip-path="url(#clip0_3_5348)">
<path d="M0.5 0H12.5V12H0.5V0Z" fill="#0D47A1"/>
<path d="M6.5 2.66667V0H0.5V6H3.16667V4L5.16667 6H6.5V4.66667L4.5 2.66667H6.5Z" fill="#F8F9FD"/>
<path d="M2.5 0.666667V0H1.16667V0.666667H0.5V2H1.16667V6H2.5V2H6.5V0.666667H2.5Z" fill="#EF5350"/>
<path d="M6.49996 5.33341L3.83329 2.66675H3.16663L6.49996 6.00008V5.33341Z" fill="#EF5350"/>
<path d="M5.16667 8.66659L4.5 8.99992V9.33325H4.16667L3.83333 9.99992L3.5 9.33325H3.16667V8.99992L2.5 8.66659L3.16667 8.33325V7.99992H3.5L3.83333 7.33325L4.16667 7.99992H4.5V8.33325L5.16667 8.66659Z" fill="#F8F9FD"/>
<path d="M9.20671 8.41334L9.37338 8.76001L9.74671 8.67334L9.58005 9.01334L9.88005 9.25334L9.50671 9.33334V9.72001L9.20671 9.48001L8.91338 9.72001V9.33334L8.54005 9.25334L8.84005 9.01334L8.67338 8.67334L9.04671 8.76001L9.20671 8.41334ZM7.68005 4.76001L7.84005 5.10667L8.21338 5.02001L8.04671 5.36001L8.34671 5.60001L7.97338 5.68667V6.06667L7.68005 5.82667L7.38005 6.06667V5.68667L7.00671 5.60001L7.30671 5.36001L7.14005 5.02001L7.51338 5.10667L7.68005 4.76001ZM9.20671 2.67334L9.37338 3.02001L9.74671 2.93334L9.58005 3.27334L9.88005 3.51334L9.50671 3.59334V3.98001L9.20671 3.74001L8.91338 3.98001V3.59334L8.54005 3.51334L8.84005 3.27334L8.67338 2.93334L9.04671 3.02001L9.20671 2.67334ZM10.5467 4.24001L10.7134 4.58667L11.0867 4.50001L10.92 4.84001L11.2134 5.08001L10.8467 5.16001V5.54667L10.5467 5.30667L10.2467 5.54667V5.16001L9.88005 5.08001L10.18 4.84001L10.0134 4.50001L10.38 4.58667L10.5467 4.24001ZM9.59338 6.06667L9.72671 6.46667H10.14L9.80671 6.71334L9.93338 7.11334L9.59338 6.86001L9.25338 7.10667L9.38671 6.70667L9.04005 6.46667H9.46005L9.59338 6.06667Z" fill="#F8F9FD"/>
</g>
<defs>
<clipPath id="clip0_3_5348">
<rect width="12" height="12" fill="white" transform="translate(0.5)"/>
</clipPath>
</defs>
</svg>
