<svg width="24" height="24" viewBox="0 0 24 24" fill="white" xmlns="http://www.w3.org/2000/svg">
<path d="M6.25356 16.231C10.7231 17.9753 14.5267 18.3151 18.8369 15.6001C18.8053 15.6475 17.9527 16.9106 15.7106 17.5579C16.1843 18.2053 16.8316 18.9474 16.8316 18.9474C18.2685 18.9474 19.6738 18.5369 20.8895 17.7474C21.8369 17.1158 22.3737 16.0263 22.2632 14.8895C22.0737 12.9474 21.6158 11.0527 20.9053 9.23692C20.0053 6.86851 17.8422 5.22639 15.3316 4.98953C15.1106 4.97373 14.9527 4.97373 14.858 4.97373L14.6054 5.22634C17.4948 6.0474 18.9317 7.32634 18.9632 7.37373C14.5264 5.13161 9.28431 5.10006 4.81585 7.279C4.81585 7.279 6.23691 5.87373 9.37899 5.13161L9.18952 4.94214C8.85793 4.94214 8.54213 4.97373 8.21059 5.02108C5.88952 5.41581 3.94745 7.01055 3.11059 9.20528C2.38426 11.1 1.91059 13.0895 1.73692 15.1105C1.64218 16.1842 2.14745 17.2421 3.03165 17.8579C4.20006 18.6316 5.58952 19.0421 6.99479 19.0421C6.99479 19.0421 7.5632 18.3 8.13165 17.6369C6.00006 17.0053 5.13165 15.7421 5.11585 15.6947L5.51701 15.8996C5.75682 16.0221 6.00268 16.1331 6.25356 16.231ZM8.73165 14.8579C7.70532 14.8263 6.90005 13.9579 6.93165 12.9158C6.96324 11.9369 7.75271 11.1474 8.73165 11.1158C9.75798 11.1474 10.5632 12.0158 10.5316 13.0579C10.4843 14.0369 9.71059 14.8264 8.73165 14.8579ZM15.1737 14.8579C14.1474 14.8263 13.3421 13.9579 13.3737 12.9158C13.4053 11.9369 14.1948 11.1474 15.1737 11.1158C16.2001 11.1474 17.0053 12.0158 16.9737 13.0579C16.9422 14.0369 16.1527 14.8264 15.1737 14.8579Z" fill="current"/>
</svg>