<svg width="32" height="32" viewBox="0 0 32 32" fill="none" xmlns="http://www.w3.org/2000/svg">
<path d="M21.625 28.1876H10.375C9.64886 28.1876 9.19574 27.3941 9.57124 26.7676L15.1962 17.3926H16.8039L22.4289 26.7676C22.8037 27.3929 22.3525 28.1876 21.625 28.1876Z" fill="#7E77FF"/>
<path d="M16 17.3926V28.1876H21.625C22.3525 28.1876 22.8036 27.3929 22.4288 26.7676L16.8038 17.3926H16Z" fill="#635BFF"/>
<path d="M31.0625 18.8125H0.9375C0.419312 18.8125 0 18.3932 0 17.875C0 17.3568 0.419312 16.9375 0.9375 16.9375H31.0625C31.5807 16.9375 32 17.3568 32 17.875C32 18.3932 31.5807 18.8125 31.0625 18.8125Z" fill="#BFC7D6"/>
<path d="M31.0625 18.8125C31.5807 18.8125 32 18.3932 32 17.875C32 17.3568 31.5807 16.9375 31.0625 16.9375H16V18.8125H31.0625Z" fill="#D8E0F0"/>
<path d="M5.625 15.0625C2.52319 15.0625 0 12.5393 0 9.4375C0 6.33569 2.52319 3.8125 5.625 3.8125C8.72681 3.8125 11.25 6.33569 11.25 9.4375C11.25 12.5393 8.72681 15.0625 5.625 15.0625Z" fill="#635BFF"/>
<path d="M26.375 15.0625C23.2732 15.0625 20.75 12.5393 20.75 9.4375C20.75 6.33569 23.2732 3.8125 26.375 3.8125C29.4768 3.8125 32 6.33569 32 9.4375C32 12.5393 29.4768 15.0625 26.375 15.0625Z" fill="#BB64FF"/>
</svg>
