<svg width="32" height="32" viewBox="0 0 32 32" fill="none" xmlns="http://www.w3.org/2000/svg">
<g clip-path="url(#clip0_3_5706)">
<path d="M28.1875 14.125C28.1875 21.8875 21.8875 28.1875 14.125 28.1875C6.3625 28.1875 0 21.8875 0 14.125C0 6.3625 6.3625 0 14.125 0C21.8875 0 28.1875 6.3625 28.1875 14.125Z" fill="#7E77FF"/>
<path d="M28.1875 14.125C28.1875 21.8875 21.8875 28.1875 14.125 28.1875V0C21.8875 0 28.1875 6.3625 28.1875 14.125Z" fill="#635BFF"/>
<path d="M26.3125 14.125C26.3125 20.8562 20.8563 26.3125 14.125 26.3125C7.39369 26.3125 1.875 20.8562 1.875 14.125C1.875 7.39369 7.39369 1.875 14.125 1.875C20.8563 1.875 26.3125 7.39369 26.3125 14.125Z" fill="#7E77FF"/>
<path d="M26.3125 14.125C26.3125 20.8562 20.8563 26.3125 14.125 26.3125V1.875C20.8563 1.875 26.3125 7.39369 26.3125 14.125Z" fill="#635BFF"/>
<path d="M13.1875 3.8125H15.0625V5.6875H13.1875V3.8125Z" fill="white"/>
<path d="M13.1875 22.5625H15.0625V24.4375H13.1875V22.5625Z" fill="white"/>
<path d="M6.16846 7.49561L7.49395 6.17011L8.81944 7.49561L7.49395 8.8211L6.16846 7.49561Z" fill="white"/>
<path d="M6.16724 20.7529L7.49273 19.4274L8.81822 20.7529L7.49273 22.0784L6.16724 20.7529Z" fill="white"/>
<path d="M19.4258 7.49707L20.7513 6.17158L22.0768 7.49707L20.7513 8.82256L19.4258 7.49707Z" fill="#E2E2E2"/>
<path d="M3.8125 13.1875H5.6875V15.0625H3.8125V13.1875Z" fill="white"/>
<path d="M22.5625 13.1875H24.4375V15.0625H22.5625V13.1875Z" fill="#E2E2E2"/>
<path d="M18.8125 13.1875V15.0625H13.1875V7.5625H15.0625V13.1875H18.8125Z" fill="white"/>
<path d="M24.4375 16.9375C20.2937 16.9375 16.9375 20.2937 16.9375 24.4375C16.9375 28.5812 20.2937 32 24.4375 32C28.5813 32 32 28.5812 32 24.4375C32 20.2937 28.5813 16.9375 24.4375 16.9375Z" fill="#C67CFF"/>
<path d="M32 24.4375C32 28.5812 28.5813 32 24.4375 32V16.9375C28.5813 16.9375 32 20.2937 32 24.4375Z" fill="#BB64FF"/>
<path d="M27.9061 23.2188L24.4374 26.7063L23.4999 27.6438L20.9688 25.0938L22.2811 23.7812L23.4999 24.9813L24.4374 24.0438L26.5938 21.9062L27.9061 23.2188Z" fill="#F9F5F3"/>
<path d="M27.9062 23.2188L24.4375 26.7063V24.0438L26.5938 21.9062L27.9062 23.2188Z" fill="#F0DBD8"/>
<path d="M14.125 3.8125H15.0625V5.6875H14.125V3.8125Z" fill="#E2E2E2"/>
<path d="M14.125 22.5625H15.0625V24.4375H14.125V22.5625Z" fill="#E2E2E2"/>
<path d="M18.8125 13.1875V15.0625H14.125V7.5625H15.0625V13.1875H18.8125Z" fill="#E2E2E2"/>
</g>
<defs>
<clipPath id="clip0_3_5706">
<rect width="32" height="32" fill="white"/>
</clipPath>
</defs>
</svg>
