<svg width="32" height="32" viewBox="0 0 32 32" fill="none" xmlns="http://www.w3.org/2000/svg">
<g clip-path="url(#clip0_3_5638)">
<path d="M31.7253 18.1902C31.7187 18.1836 31.7121 18.177 31.7054 18.1705C30.6795 17.1592 28.9893 17.2571 27.9085 18.2095L23.8083 21.845C23.3175 22.3348 22.6144 22.625 21.8673 22.625H20.6875H16C15.4818 22.625 15.0625 22.2057 15.0625 21.6875C15.0625 21.1693 15.4818 20.75 16 20.75H20.6875H21.625C22.6605 20.75 23.5 19.9105 23.5 18.875C23.5 17.8395 22.6605 17 21.625 17H20.6875H17.7688C15.7546 14.7542 11.9259 14.5739 9.71577 16.6585L2.4939 23.416L8.05846 29.9538L11.6381 26.375H20.6875H23.9379C24.1774 26.375 24.408 26.2832 24.5821 26.1186L31.707 19.5341C32.093 19.1674 32.096 18.559 31.7253 18.1902Z" fill="#7E77FF"/>
<path d="M24.5822 26.1186L31.7071 19.5341C32.0931 19.1673 32.0961 18.5589 31.7254 18.1901C31.7188 18.1835 31.7121 18.1769 31.7054 18.1704C30.6796 17.1591 28.9893 17.257 27.9085 18.2094L23.8083 21.8449C23.3176 22.3348 22.6144 22.6249 21.8674 22.6249H20.6875V26.3749H23.9379C24.1775 26.375 24.4081 26.2832 24.5822 26.1186Z" fill="#7E77FF"/>
<path d="M21.625 20.75C22.6606 20.75 23.5 19.9104 23.5 18.875C23.5 17.8394 22.6606 17 21.625 17H20.6875V20.75H21.625Z" fill="#7E77FF"/>
<path d="M20.6875 15.125C24.8296 15.125 28.1875 11.7392 28.1875 7.5625C28.1875 3.38585 24.8296 0 20.6875 0C16.5454 0 13.1875 3.38585 13.1875 7.5625C13.1875 11.7392 16.5454 15.125 20.6875 15.125Z" fill="#C67CFF"/>
<path d="M28.1875 7.5625C28.1875 3.42706 24.8239 0 20.6875 0V15.125C24.8239 15.125 28.1875 11.6979 28.1875 7.5625Z" fill="#BB64FF"/>
<path d="M22.5625 11.3125C23.0803 11.3125 23.5 10.8928 23.5 10.375C23.5 9.85723 23.0803 9.4375 22.5625 9.4375C22.0447 9.4375 21.625 9.85723 21.625 10.375C21.625 10.8928 22.0447 11.3125 22.5625 11.3125Z" fill="white"/>
<path d="M18.8125 5.6875C19.3303 5.6875 19.75 5.26777 19.75 4.75C19.75 4.23223 19.3303 3.8125 18.8125 3.8125C18.2947 3.8125 17.875 4.23223 17.875 4.75C17.875 5.26777 18.2947 5.6875 18.8125 5.6875Z" fill="white"/>
<path d="M23.0826 3.97005C22.656 3.6853 22.0701 3.79699 21.7826 4.23005L20.6876 5.87249L18.0326 9.85505C17.7451 10.2862 17.8622 10.8676 18.2926 11.1551C18.7199 11.4399 19.3021 11.3294 19.5926 10.8951L20.6876 9.25268L23.3426 5.27011C23.6301 4.83886 23.5129 4.25749 23.0826 3.97005Z" fill="#EDF3FF"/>
<path d="M23.0826 3.97005C22.6559 3.6853 22.07 3.79699 21.7825 4.23005L20.6875 5.87249V9.25261L23.3425 5.27005C23.63 4.83886 23.5128 4.25749 23.0826 3.97005Z" fill="white"/>
<path d="M1.60061 22.5111L0.274547 23.8372C-0.0915156 24.2033 -0.0915156 24.7969 0.274547 25.1629L6.83705 31.7254C7.20323 32.0916 7.79648 32.0917 8.16273 31.7254L9.4888 30.3994C9.85492 30.0332 9.85492 29.4397 9.4888 29.0736L2.92642 22.5111C2.5603 22.1451 1.96673 22.1451 1.60061 22.5111Z" fill="#635BFF"/>
</g>
<defs>
<clipPath id="clip0_3_5638">
<rect width="32" height="32" fill="white"/>
</clipPath>
</defs>
</svg>
