<svg width="18" height="19" viewBox="0 0 18 19" fill="none" xmlns="http://www.w3.org/2000/svg">
<path d="M11.5426 4.40746L12.6001 6.52246C12.7426 6.81496 13.1251 7.09246 13.4476 7.15246L15.3601 7.46746C16.5826 7.66996 16.8676 8.55496 15.9901 9.43996L14.4976 10.9325C14.2501 11.18 14.1076 11.6675 14.1901 12.02L14.6176 13.865C14.9551 15.32 14.1751 15.89 12.8926 15.125L11.1001 14.06C10.7776 13.865 10.2376 13.865 9.91508 14.06L8.12258 15.125C6.84008 15.8825 6.06008 15.32 6.39758 13.865L6.82508 12.02C6.89258 11.66 6.75008 11.1725 6.50258 10.925L5.01008 9.43246C4.13258 8.55496 4.41758 7.66996 5.64008 7.45996L7.55258 7.14496C7.87508 7.09246 8.25758 6.80746 8.40008 6.51496L9.45758 4.39996C10.0351 3.25996 10.9651 3.25996 11.5426 4.40746Z" fill="#FFBF00"/>
<path d="M6 4.8125H1.5C1.1925 4.8125 0.9375 4.5575 0.9375 4.25C0.9375 3.9425 1.1925 3.6875 1.5 3.6875H6C6.3075 3.6875 6.5625 3.9425 6.5625 4.25C6.5625 4.5575 6.3075 4.8125 6 4.8125Z" fill="#FFBF00"/>
<path d="M3.75 15.3125H1.5C1.1925 15.3125 0.9375 15.0575 0.9375 14.75C0.9375 14.4425 1.1925 14.1875 1.5 14.1875H3.75C4.0575 14.1875 4.3125 14.4425 4.3125 14.75C4.3125 15.0575 4.0575 15.3125 3.75 15.3125Z" fill="#FFBF00"/>
<path d="M2.25 10.0625H1.5C1.1925 10.0625 0.9375 9.8075 0.9375 9.5C0.9375 9.1925 1.1925 8.9375 1.5 8.9375H2.25C2.5575 8.9375 2.8125 9.1925 2.8125 9.5C2.8125 9.8075 2.5575 10.0625 2.25 10.0625Z" fill="#FFBF00"/>
</svg>
